<mxfile host="app.diagrams.net" modified="2022-03-27T17:49:00.517Z" agent="5.0 (Windows NT 10.0; Win64; x64) AppleWebKit/537.36 (KHTML, like Gecko) Chrome/99.0.4844.82 Safari/537.36" etag="EQLKuG4K1KwvPw3Zcdwu" version="17.2.4" type="github">
  <diagram id="KY6RvaeYp6ByTil1Vgkr" name="Page-1">
    <mxGraphModel dx="868" dy="482" grid="1" gridSize="10" guides="1" tooltips="1" connect="1" arrows="1" fold="1" page="1" pageScale="1" pageWidth="827" pageHeight="1169" background="#ffffff" math="0" shadow="0">
      <root>
        <mxCell id="0" />
        <mxCell id="1" parent="0" />
        <mxCell id="r96yscCsjWZuuUBchP15-3" value="" style="rounded=0;orthogonalLoop=1;jettySize=auto;html=1;" edge="1" parent="1" source="r96yscCsjWZuuUBchP15-1" target="r96yscCsjWZuuUBchP15-2">
          <mxGeometry relative="1" as="geometry" />
        </mxCell>
        <mxCell id="r96yscCsjWZuuUBchP15-1" value="người dùng" style="shape=umlActor;verticalLabelPosition=bottom;verticalAlign=top;html=1;outlineConnect=0;" vertex="1" parent="1">
          <mxGeometry x="210" y="230" width="30" height="60" as="geometry" />
        </mxCell>
        <mxCell id="r96yscCsjWZuuUBchP15-10" style="edgeStyle=none;rounded=0;orthogonalLoop=1;jettySize=auto;html=1;dashed=1;fontSize=15;" edge="1" parent="1" source="r96yscCsjWZuuUBchP15-2" target="r96yscCsjWZuuUBchP15-7">
          <mxGeometry relative="1" as="geometry" />
        </mxCell>
        <mxCell id="r96yscCsjWZuuUBchP15-2" value="Đăng nhập" style="ellipse;whiteSpace=wrap;html=1;verticalAlign=middle;align=center;" vertex="1" parent="1">
          <mxGeometry x="360" y="230" width="120" height="60" as="geometry" />
        </mxCell>
        <mxCell id="r96yscCsjWZuuUBchP15-7" value="Lấy lại mật khẩu" style="ellipse;whiteSpace=wrap;html=1;" vertex="1" parent="1">
          <mxGeometry x="580" y="140" width="120" height="80" as="geometry" />
        </mxCell>
        <mxCell id="r96yscCsjWZuuUBchP15-9" value="&amp;lt;&amp;lt;include&amp;gt;&amp;gt;" style="text;html=1;strokeColor=none;fillColor=none;align=center;verticalAlign=middle;whiteSpace=wrap;rounded=0;fontSize=15;rotation=-15;" vertex="1" parent="1">
          <mxGeometry x="480" y="180" width="60" height="30" as="geometry" />
        </mxCell>
        <mxCell id="r96yscCsjWZuuUBchP15-11" value="" style="rounded=0;orthogonalLoop=1;jettySize=auto;html=1;" edge="1" parent="1" source="r96yscCsjWZuuUBchP15-12" target="r96yscCsjWZuuUBchP15-13">
          <mxGeometry relative="1" as="geometry" />
        </mxCell>
        <mxCell id="r96yscCsjWZuuUBchP15-12" value="người dùng" style="shape=umlActor;verticalLabelPosition=bottom;verticalAlign=top;html=1;outlineConnect=0;" vertex="1" parent="1">
          <mxGeometry x="210" y="400" width="30" height="60" as="geometry" />
        </mxCell>
        <mxCell id="r96yscCsjWZuuUBchP15-17" value="" style="edgeStyle=none;rounded=0;orthogonalLoop=1;jettySize=auto;html=1;dashed=1;fontSize=15;" edge="1" parent="1" source="r96yscCsjWZuuUBchP15-13" target="r96yscCsjWZuuUBchP15-14">
          <mxGeometry relative="1" as="geometry" />
        </mxCell>
        <mxCell id="r96yscCsjWZuuUBchP15-13" value="quên mật khẩu" style="ellipse;whiteSpace=wrap;html=1;verticalAlign=middle;align=center;" vertex="1" parent="1">
          <mxGeometry x="360" y="400" width="120" height="60" as="geometry" />
        </mxCell>
        <mxCell id="r96yscCsjWZuuUBchP15-14" value="Nhập email" style="ellipse;whiteSpace=wrap;html=1;" vertex="1" parent="1">
          <mxGeometry x="580" y="380" width="120" height="80" as="geometry" />
        </mxCell>
        <mxCell id="r96yscCsjWZuuUBchP15-16" value="&amp;lt;&amp;lt;extend&amp;gt;&amp;gt;" style="text;html=1;strokeColor=none;fillColor=none;align=center;verticalAlign=middle;whiteSpace=wrap;rounded=0;fontSize=15;rotation=0;" vertex="1" parent="1">
          <mxGeometry x="491.27" y="380" width="60" height="30" as="geometry" />
        </mxCell>
        <mxCell id="r96yscCsjWZuuUBchP15-18" value="" style="rounded=0;orthogonalLoop=1;jettySize=auto;html=1;" edge="1" parent="1" source="r96yscCsjWZuuUBchP15-19" target="r96yscCsjWZuuUBchP15-21">
          <mxGeometry relative="1" as="geometry" />
        </mxCell>
        <mxCell id="r96yscCsjWZuuUBchP15-19" value="người dùng" style="shape=umlActor;verticalLabelPosition=bottom;verticalAlign=top;html=1;outlineConnect=0;" vertex="1" parent="1">
          <mxGeometry x="210" y="630" width="30" height="60" as="geometry" />
        </mxCell>
        <mxCell id="r96yscCsjWZuuUBchP15-20" style="edgeStyle=none;rounded=0;orthogonalLoop=1;jettySize=auto;html=1;dashed=1;fontSize=15;" edge="1" parent="1" source="r96yscCsjWZuuUBchP15-21" target="r96yscCsjWZuuUBchP15-22">
          <mxGeometry relative="1" as="geometry" />
        </mxCell>
        <mxCell id="r96yscCsjWZuuUBchP15-21" value="Trang chủ&amp;nbsp;" style="ellipse;whiteSpace=wrap;html=1;verticalAlign=middle;align=center;" vertex="1" parent="1">
          <mxGeometry x="360" y="630" width="120" height="60" as="geometry" />
        </mxCell>
        <mxCell id="r96yscCsjWZuuUBchP15-22" value="Đã Đăng Nhập" style="ellipse;whiteSpace=wrap;html=1;" vertex="1" parent="1">
          <mxGeometry x="620" y="610" width="120" height="80" as="geometry" />
        </mxCell>
        <mxCell id="r96yscCsjWZuuUBchP15-23" value="&amp;lt;&amp;lt;include&amp;gt;&amp;gt;" style="text;html=1;strokeColor=none;fillColor=none;align=center;verticalAlign=middle;whiteSpace=wrap;rounded=0;fontSize=15;rotation=0;" vertex="1" parent="1">
          <mxGeometry x="510" y="610" width="60" height="30" as="geometry" />
        </mxCell>
        <mxCell id="r96yscCsjWZuuUBchP15-24" value="" style="rounded=0;orthogonalLoop=1;jettySize=auto;html=1;" edge="1" parent="1" source="r96yscCsjWZuuUBchP15-25" target="r96yscCsjWZuuUBchP15-26">
          <mxGeometry relative="1" as="geometry" />
        </mxCell>
        <mxCell id="r96yscCsjWZuuUBchP15-25" value="người dùng" style="shape=umlActor;verticalLabelPosition=bottom;verticalAlign=top;html=1;outlineConnect=0;" vertex="1" parent="1">
          <mxGeometry x="210" y="870" width="30" height="60" as="geometry" />
        </mxCell>
        <mxCell id="r96yscCsjWZuuUBchP15-26" value="Thanh chức năng" style="ellipse;whiteSpace=wrap;html=1;verticalAlign=middle;align=center;" vertex="1" parent="1">
          <mxGeometry x="360" y="870" width="120" height="60" as="geometry" />
        </mxCell>
        <mxCell id="r96yscCsjWZuuUBchP15-29" value="" style="edgeStyle=none;rounded=0;orthogonalLoop=1;jettySize=auto;html=1;dashed=1;fontSize=15;" edge="1" parent="1" source="r96yscCsjWZuuUBchP15-27">
          <mxGeometry relative="1" as="geometry">
            <mxPoint x="360" y="1080" as="targetPoint" />
          </mxGeometry>
        </mxCell>
        <mxCell id="r96yscCsjWZuuUBchP15-27" value="người dùng" style="shape=umlActor;verticalLabelPosition=bottom;verticalAlign=top;html=1;outlineConnect=0;fontSize=15;" vertex="1" parent="1">
          <mxGeometry x="210" y="1050" width="30" height="60" as="geometry" />
        </mxCell>
        <mxCell id="r96yscCsjWZuuUBchP15-30" value="Hàng hóa" style="ellipse;whiteSpace=wrap;html=1;verticalAlign=middle;align=center;" vertex="1" parent="1">
          <mxGeometry x="360" y="1050" width="120" height="60" as="geometry" />
        </mxCell>
      </root>
    </mxGraphModel>
  </diagram>
</mxfile>
